<?xml version="1.0" encoding="us-ascii" standalone="no"?><svg xmlns="http://www.w3.org/2000/svg" xmlns:xlink="http://www.w3.org/1999/xlink" contentStyleType="text/css" height="2085px" preserveAspectRatio="none" style="width:1750px;height:2085px;background:#FFFFFF;" version="1.1" viewBox="0 0 1750 2085" width="1750px" zoomAndPan="magnify"><defs/><g><text fill="#000000" font-family="sans-serif" font-size="14" font-weight="bold" lengthAdjust="spacing" textLength="112" x="817.5" y="32.9951">API endpoints</text><rect fill="#F1F1F1" height="36.2969" rx="12.5" ry="12.5" style="stroke:#181818;stroke-width:1.5;" width="133" x="572" y="1042.4922"/><text fill="#000000" font-family="sans-serif" font-size="14" lengthAdjust="spacing" textLength="113" x="582" y="1065.4873">Restfull-booker</text><rect fill="#F1F1F1" height="36.2969" rx="12.5" ry="12.5" style="stroke:#181818;stroke-width:1.5;" width="79" x="755" y="1042.4922"/><text fill="#000000" font-family="sans-serif" font-size="14" lengthAdjust="spacing" textLength="59" x="765" y="1065.4873">Booking</text><rect fill="#F1F1F1" height="36.2969" rx="12.5" ry="12.5" style="stroke:#181818;stroke-width:1.5;" width="126" x="884" y="169.8906"/><text fill="#000000" font-family="sans-serif" font-size="14" lengthAdjust="spacing" textLength="106" x="894" y="192.8857">GetBookingIds</text><rect fill="#F1F1F1" height="36.2969" rx="12.5" ry="12.5" style="stroke:#181818;stroke-width:1.5;" width="117" x="1060" y="169.8906"/><text fill="#000000" font-family="sans-serif" font-size="14" lengthAdjust="spacing" textLength="97" x="1070" y="192.8857">GET /booking</text><rect fill="#F1F1F1" height="36.2969" rx="12.5" ry="12.5" style="stroke:#181818;stroke-width:1.5;" width="104" x="1227" y="141.7422"/><text fill="#000000" font-family="sans-serif" font-size="14" lengthAdjust="spacing" textLength="84" x="1237" y="164.7373">parameters</text><rect fill="#F1F1F1" height="36.2969" rx="12.5" ry="12.5" style="stroke:#181818;stroke-width:1.5;" width="90" x="1381" y="57.2969"/><text fill="#000000" font-family="sans-serif" font-size="14" lengthAdjust="spacing" textLength="70" x="1391" y="80.292">firstname</text><path d="M1331,159.8906 L1341,159.8906 C1356,159.8906 1356,75.4453 1371,75.4453 L1381,75.4453 " fill="none" style="stroke:#181818;stroke-width:1.0;"/><rect fill="#F1F1F1" height="36.2969" rx="12.5" ry="12.5" style="stroke:#181818;stroke-width:1.5;" width="86" x="1381" y="113.5938"/><text fill="#000000" font-family="sans-serif" font-size="14" lengthAdjust="spacing" textLength="66" x="1391" y="136.5889">lastname</text><path d="M1331,159.8906 L1341,159.8906 C1356,159.8906 1356,131.7422 1371,131.7422 L1381,131.7422 " fill="none" style="stroke:#181818;stroke-width:1.0;"/><rect fill="#F1F1F1" height="36.2969" rx="12.5" ry="12.5" style="stroke:#181818;stroke-width:1.5;" width="76" x="1381" y="169.8906"/><text fill="#000000" font-family="sans-serif" font-size="14" lengthAdjust="spacing" textLength="56" x="1391" y="192.8857">checkin</text><path d="M1331,159.8906 L1341,159.8906 C1356,159.8906 1356,188.0391 1371,188.0391 L1381,188.0391 " fill="none" style="stroke:#181818;stroke-width:1.0;"/><rect fill="#F1F1F1" height="36.2969" rx="12.5" ry="12.5" style="stroke:#181818;stroke-width:1.5;" width="87" x="1381" y="226.1875"/><text fill="#000000" font-family="sans-serif" font-size="14" lengthAdjust="spacing" textLength="67" x="1391" y="249.1826">checkout</text><path d="M1331,159.8906 L1341,159.8906 C1356,159.8906 1356,244.3359 1371,244.3359 L1381,244.3359 " fill="none" style="stroke:#181818;stroke-width:1.0;"/><path d="M1177,188.0391 L1187,188.0391 C1202,188.0391 1202,159.8906 1217,159.8906 L1227,159.8906 " fill="none" style="stroke:#181818;stroke-width:1.0;"/><rect fill="#F1F1F1" height="36.2969" rx="12.5" ry="12.5" style="stroke:#181818;stroke-width:1.5;" width="65" x="1227" y="282.4844"/><text fill="#000000" font-family="sans-serif" font-size="14" lengthAdjust="spacing" textLength="45" x="1237" y="305.4795">return</text><rect fill="#F1F1F1" height="36.2969" rx="12.5" ry="12.5" style="stroke:#181818;stroke-width:1.5;" width="92" x="1342" y="282.4844"/><text fill="#000000" font-family="sans-serif" font-size="14" lengthAdjust="spacing" textLength="72" x="1352" y="305.4795">bookingid</text><path d="M1292,300.6328 L1302,300.6328 C1317,300.6328 1317,300.6328 1332,300.6328 L1342,300.6328 " fill="none" style="stroke:#181818;stroke-width:1.0;"/><path d="M1177,188.0391 L1187,188.0391 C1202,188.0391 1202,300.6328 1217,300.6328 L1227,300.6328 " fill="none" style="stroke:#181818;stroke-width:1.0;"/><path d="M1010,188.0391 L1020,188.0391 C1035,188.0391 1035,188.0391 1050,188.0391 L1060,188.0391 " fill="none" style="stroke:#181818;stroke-width:1.0;"/><path d="M834,1060.6406 L844,1060.6406 C859,1060.6406 859,188.0391 874,188.0391 L884,188.0391 " fill="none" style="stroke:#181818;stroke-width:1.0;"/><rect fill="#F1F1F1" height="36.2969" rx="12.5" ry="12.5" style="stroke:#181818;stroke-width:1.5;" width="106" x="884" y="521.7461"/><text fill="#000000" font-family="sans-serif" font-size="14" lengthAdjust="spacing" textLength="86" x="894" y="544.7412">GetBooking</text><rect fill="#F1F1F1" height="36.2969" rx="12.5" ry="12.5" style="stroke:#181818;stroke-width:1.5;" width="117" x="1040" y="338.7813"/><text fill="#000000" font-family="sans-serif" font-size="14" lengthAdjust="spacing" textLength="97" x="1050" y="361.7764">GET /booking</text><rect fill="#F1F1F1" height="36.2969" rx="12.5" ry="12.5" style="stroke:#181818;stroke-width:1.5;" width="119" x="1207" y="338.7813"/><text fill="#000000" font-family="sans-serif" font-size="14" lengthAdjust="spacing" textLength="99" x="1217" y="361.7764">url parameter</text><rect fill="#F1F1F1" height="36.2969" rx="12.5" ry="12.5" style="stroke:#181818;stroke-width:1.5;" width="33" x="1376" y="338.7813"/><text fill="#000000" font-family="sans-serif" font-size="14" lengthAdjust="spacing" textLength="13" x="1386" y="361.7764">id</text><path d="M1326,356.9297 L1336,356.9297 C1351,356.9297 1351,356.9297 1366,356.9297 L1376,356.9297 " fill="none" style="stroke:#181818;stroke-width:1.0;"/><path d="M1157,356.9297 L1167,356.9297 C1182,356.9297 1182,356.9297 1197,356.9297 L1207,356.9297 " fill="none" style="stroke:#181818;stroke-width:1.0;"/><path d="M990,539.8945 L1000,539.8945 C1015,539.8945 1015,356.9297 1030,356.9297 L1040,356.9297 " fill="none" style="stroke:#181818;stroke-width:1.0;"/><rect fill="#F1F1F1" height="36.2969" rx="12.5" ry="12.5" style="stroke:#181818;stroke-width:1.5;" width="65" x="1040" y="549.8945"/><text fill="#000000" font-family="sans-serif" font-size="14" lengthAdjust="spacing" textLength="45" x="1050" y="572.8896">return</text><rect fill="#F1F1F1" height="36.2969" rx="12.5" ry="12.5" style="stroke:#181818;stroke-width:1.5;" width="90" x="1155" y="395.0781"/><text fill="#000000" font-family="sans-serif" font-size="14" lengthAdjust="spacing" textLength="70" x="1165" y="418.0732">firstname</text><path d="M1105,568.043 L1115,568.043 C1130,568.043 1130,413.2266 1145,413.2266 L1155,413.2266 " fill="none" style="stroke:#181818;stroke-width:1.0;"/><rect fill="#F1F1F1" height="36.2969" rx="12.5" ry="12.5" style="stroke:#181818;stroke-width:1.5;" width="86" x="1155" y="451.375"/><text fill="#000000" font-family="sans-serif" font-size="14" lengthAdjust="spacing" textLength="66" x="1165" y="474.3701">lastname</text><path d="M1105,568.043 L1115,568.043 C1130,568.043 1130,469.5234 1145,469.5234 L1155,469.5234 " fill="none" style="stroke:#181818;stroke-width:1.0;"/><rect fill="#F1F1F1" height="36.2969" rx="12.5" ry="12.5" style="stroke:#181818;stroke-width:1.5;" width="92" x="1155" y="507.6719"/><text fill="#000000" font-family="sans-serif" font-size="14" lengthAdjust="spacing" textLength="72" x="1165" y="530.667">totalprice</text><path d="M1105,568.043 L1115,568.043 C1130,568.043 1130,525.8203 1145,525.8203 L1155,525.8203 " fill="none" style="stroke:#181818;stroke-width:1.0;"/><rect fill="#F1F1F1" height="36.2969" rx="12.5" ry="12.5" style="stroke:#181818;stroke-width:1.5;" width="106" x="1155" y="563.9688"/><text fill="#000000" font-family="sans-serif" font-size="14" lengthAdjust="spacing" textLength="86" x="1165" y="586.9639">depositpaid</text><path d="M1105,568.043 L1115,568.043 C1130,568.043 1130,582.1172 1145,582.1172 L1155,582.1172 " fill="none" style="stroke:#181818;stroke-width:1.0;"/><rect fill="#F1F1F1" height="36.2969" rx="12.5" ry="12.5" style="stroke:#181818;stroke-width:1.5;" width="119" x="1155" y="620.2656"/><text fill="#000000" font-family="sans-serif" font-size="14" lengthAdjust="spacing" textLength="99" x="1165" y="643.2607">bookingdates</text><rect fill="#F1F1F1" height="36.2969" rx="12.5" ry="12.5" style="stroke:#181818;stroke-width:1.5;" width="76" x="1324" y="592.1172"/><text fill="#000000" font-family="sans-serif" font-size="14" lengthAdjust="spacing" textLength="56" x="1334" y="615.1123">checkin</text><path d="M1274,638.4141 L1284,638.4141 C1299,638.4141 1299,610.2656 1314,610.2656 L1324,610.2656 " fill="none" style="stroke:#181818;stroke-width:1.0;"/><rect fill="#F1F1F1" height="36.2969" rx="12.5" ry="12.5" style="stroke:#181818;stroke-width:1.5;" width="87" x="1324" y="648.4141"/><text fill="#000000" font-family="sans-serif" font-size="14" lengthAdjust="spacing" textLength="67" x="1334" y="671.4092">checkout</text><path d="M1274,638.4141 L1284,638.4141 C1299,638.4141 1299,666.5625 1314,666.5625 L1324,666.5625 " fill="none" style="stroke:#181818;stroke-width:1.0;"/><path d="M1105,568.043 L1115,568.043 C1130,568.043 1130,638.4141 1145,638.4141 L1155,638.4141 " fill="none" style="stroke:#181818;stroke-width:1.0;"/><rect fill="#F1F1F1" height="36.2969" rx="12.5" ry="12.5" style="stroke:#181818;stroke-width:1.5;" width="134" x="1155" y="704.7109"/><text fill="#000000" font-family="sans-serif" font-size="14" lengthAdjust="spacing" textLength="114" x="1165" y="727.7061">additionalneeds</text><path d="M1105,568.043 L1115,568.043 C1130,568.043 1130,722.8594 1145,722.8594 L1155,722.8594 " fill="none" style="stroke:#181818;stroke-width:1.0;"/><path d="M990,539.8945 L1000,539.8945 C1015,539.8945 1015,568.043 1030,568.043 L1040,568.043 " fill="none" style="stroke:#181818;stroke-width:1.0;"/><path d="M834,1060.6406 L844,1060.6406 C859,1060.6406 859,539.8945 874,539.8945 L884,539.8945 " fill="none" style="stroke:#181818;stroke-width:1.0;"/><rect fill="#F1F1F1" height="36.2969" rx="12.5" ry="12.5" style="stroke:#181818;stroke-width:1.5;" width="128" x="884" y="1126.9375"/><text fill="#000000" font-family="sans-serif" font-size="14" lengthAdjust="spacing" textLength="108" x="894" y="1149.9326">CreateBooking</text><rect fill="#F1F1F1" height="36.2969" rx="12.5" ry="12.5" style="stroke:#181818;stroke-width:1.5;" width="126" x="1062" y="1126.9375"/><text fill="#000000" font-family="sans-serif" font-size="14" lengthAdjust="spacing" textLength="106" x="1072" y="1149.9326">POST /booking</text><rect fill="#F1F1F1" height="36.2969" rx="12.5" ry="12.5" style="stroke:#181818;stroke-width:1.5;" width="115" x="1238" y="915.8242"/><text fill="#000000" font-family="sans-serif" font-size="14" lengthAdjust="spacing" textLength="95" x="1248" y="938.8193">request body</text><rect fill="#F1F1F1" height="36.2969" rx="12.5" ry="12.5" style="stroke:#181818;stroke-width:1.5;" width="90" x="1403" y="761.0078"/><text fill="#000000" font-family="sans-serif" font-size="14" lengthAdjust="spacing" textLength="70" x="1413" y="784.0029">firstname</text><path d="M1353,933.9727 L1363,933.9727 C1378,933.9727 1378,779.1563 1393,779.1563 L1403,779.1563 " fill="none" style="stroke:#181818;stroke-width:1.0;"/><rect fill="#F1F1F1" height="36.2969" rx="12.5" ry="12.5" style="stroke:#181818;stroke-width:1.5;" width="86" x="1403" y="817.3047"/><text fill="#000000" font-family="sans-serif" font-size="14" lengthAdjust="spacing" textLength="66" x="1413" y="840.2998">lastname</text><path d="M1353,933.9727 L1363,933.9727 C1378,933.9727 1378,835.4531 1393,835.4531 L1403,835.4531 " fill="none" style="stroke:#181818;stroke-width:1.0;"/><rect fill="#F1F1F1" height="36.2969" rx="12.5" ry="12.5" style="stroke:#181818;stroke-width:1.5;" width="92" x="1403" y="873.6016"/><text fill="#000000" font-family="sans-serif" font-size="14" lengthAdjust="spacing" textLength="72" x="1413" y="896.5967">totalprice</text><path d="M1353,933.9727 L1363,933.9727 C1378,933.9727 1378,891.75 1393,891.75 L1403,891.75 " fill="none" style="stroke:#181818;stroke-width:1.0;"/><rect fill="#F1F1F1" height="36.2969" rx="12.5" ry="12.5" style="stroke:#181818;stroke-width:1.5;" width="106" x="1403" y="929.8984"/><text fill="#000000" font-family="sans-serif" font-size="14" lengthAdjust="spacing" textLength="86" x="1413" y="952.8936">depositpaid</text><path d="M1353,933.9727 L1363,933.9727 C1378,933.9727 1378,948.0469 1393,948.0469 L1403,948.0469 " fill="none" style="stroke:#181818;stroke-width:1.0;"/><rect fill="#F1F1F1" height="36.2969" rx="12.5" ry="12.5" style="stroke:#181818;stroke-width:1.5;" width="119" x="1403" y="986.1953"/><text fill="#000000" font-family="sans-serif" font-size="14" lengthAdjust="spacing" textLength="99" x="1413" y="1009.1904">bookingdates</text><rect fill="#F1F1F1" height="36.2969" rx="12.5" ry="12.5" style="stroke:#181818;stroke-width:1.5;" width="76" x="1572" y="958.0469"/><text fill="#000000" font-family="sans-serif" font-size="14" lengthAdjust="spacing" textLength="56" x="1582" y="981.042">checkin</text><path d="M1522,1004.3438 L1532,1004.3438 C1547,1004.3438 1547,976.1953 1562,976.1953 L1572,976.1953 " fill="none" style="stroke:#181818;stroke-width:1.0;"/><rect fill="#F1F1F1" height="36.2969" rx="12.5" ry="12.5" style="stroke:#181818;stroke-width:1.5;" width="87" x="1572" y="1014.3438"/><text fill="#000000" font-family="sans-serif" font-size="14" lengthAdjust="spacing" textLength="67" x="1582" y="1037.3389">checkout</text><path d="M1522,1004.3438 L1532,1004.3438 C1547,1004.3438 1547,1032.4922 1562,1032.4922 L1572,1032.4922 " fill="none" style="stroke:#181818;stroke-width:1.0;"/><path d="M1353,933.9727 L1363,933.9727 C1378,933.9727 1378,1004.3438 1393,1004.3438 L1403,1004.3438 " fill="none" style="stroke:#181818;stroke-width:1.0;"/><rect fill="#F1F1F1" height="36.2969" rx="12.5" ry="12.5" style="stroke:#181818;stroke-width:1.5;" width="134" x="1403" y="1070.6406"/><text fill="#000000" font-family="sans-serif" font-size="14" lengthAdjust="spacing" textLength="114" x="1413" y="1093.6357">additionalneeds</text><path d="M1353,933.9727 L1363,933.9727 C1378,933.9727 1378,1088.7891 1393,1088.7891 L1403,1088.7891 " fill="none" style="stroke:#181818;stroke-width:1.0;"/><path d="M1188,1145.0859 L1198,1145.0859 C1213,1145.0859 1213,933.9727 1228,933.9727 L1238,933.9727 " fill="none" style="stroke:#181818;stroke-width:1.0;"/><rect fill="#F1F1F1" height="36.2969" rx="12.5" ry="12.5" style="stroke:#181818;stroke-width:1.5;" width="65" x="1238" y="1309.9023"/><text fill="#000000" font-family="sans-serif" font-size="14" lengthAdjust="spacing" textLength="45" x="1248" y="1332.8975">return</text><rect fill="#F1F1F1" height="36.2969" rx="12.5" ry="12.5" style="stroke:#181818;stroke-width:1.5;" width="92" x="1353" y="1126.9375"/><text fill="#000000" font-family="sans-serif" font-size="14" lengthAdjust="spacing" textLength="72" x="1363" y="1149.9326">bookingid</text><path d="M1303,1328.0508 L1313,1328.0508 C1328,1328.0508 1328,1145.0859 1343,1145.0859 L1353,1145.0859 " fill="none" style="stroke:#181818;stroke-width:1.0;"/><rect fill="#F1F1F1" height="36.2969" rx="12.5" ry="12.5" style="stroke:#181818;stroke-width:1.5;" width="79" x="1353" y="1338.0508"/><text fill="#000000" font-family="sans-serif" font-size="14" lengthAdjust="spacing" textLength="59" x="1363" y="1361.0459">booking</text><rect fill="#F1F1F1" height="36.2969" rx="12.5" ry="12.5" style="stroke:#181818;stroke-width:1.5;" width="90" x="1482" y="1183.2344"/><text fill="#000000" font-family="sans-serif" font-size="14" lengthAdjust="spacing" textLength="70" x="1492" y="1206.2295">firstname</text><path d="M1432,1356.1992 L1442,1356.1992 C1457,1356.1992 1457,1201.3828 1472,1201.3828 L1482,1201.3828 " fill="none" style="stroke:#181818;stroke-width:1.0;"/><rect fill="#F1F1F1" height="36.2969" rx="12.5" ry="12.5" style="stroke:#181818;stroke-width:1.5;" width="86" x="1482" y="1239.5313"/><text fill="#000000" font-family="sans-serif" font-size="14" lengthAdjust="spacing" textLength="66" x="1492" y="1262.5264">lastname</text><path d="M1432,1356.1992 L1442,1356.1992 C1457,1356.1992 1457,1257.6797 1472,1257.6797 L1482,1257.6797 " fill="none" style="stroke:#181818;stroke-width:1.0;"/><rect fill="#F1F1F1" height="36.2969" rx="12.5" ry="12.5" style="stroke:#181818;stroke-width:1.5;" width="92" x="1482" y="1295.8281"/><text fill="#000000" font-family="sans-serif" font-size="14" lengthAdjust="spacing" textLength="72" x="1492" y="1318.8232">totalprice</text><path d="M1432,1356.1992 L1442,1356.1992 C1457,1356.1992 1457,1313.9766 1472,1313.9766 L1482,1313.9766 " fill="none" style="stroke:#181818;stroke-width:1.0;"/><rect fill="#F1F1F1" height="36.2969" rx="12.5" ry="12.5" style="stroke:#181818;stroke-width:1.5;" width="106" x="1482" y="1352.125"/><text fill="#000000" font-family="sans-serif" font-size="14" lengthAdjust="spacing" textLength="86" x="1492" y="1375.1201">depositpaid</text><path d="M1432,1356.1992 L1442,1356.1992 C1457,1356.1992 1457,1370.2734 1472,1370.2734 L1482,1370.2734 " fill="none" style="stroke:#181818;stroke-width:1.0;"/><rect fill="#F1F1F1" height="36.2969" rx="12.5" ry="12.5" style="stroke:#181818;stroke-width:1.5;" width="119" x="1482" y="1408.4219"/><text fill="#000000" font-family="sans-serif" font-size="14" lengthAdjust="spacing" textLength="99" x="1492" y="1431.417">bookingdates</text><rect fill="#F1F1F1" height="36.2969" rx="12.5" ry="12.5" style="stroke:#181818;stroke-width:1.5;" width="76" x="1651" y="1380.2734"/><text fill="#000000" font-family="sans-serif" font-size="14" lengthAdjust="spacing" textLength="56" x="1661" y="1403.2686">checkin</text><path d="M1601,1426.5703 L1611,1426.5703 C1626,1426.5703 1626,1398.4219 1641,1398.4219 L1651,1398.4219 " fill="none" style="stroke:#181818;stroke-width:1.0;"/><rect fill="#F1F1F1" height="36.2969" rx="12.5" ry="12.5" style="stroke:#181818;stroke-width:1.5;" width="87" x="1651" y="1436.5703"/><text fill="#000000" font-family="sans-serif" font-size="14" lengthAdjust="spacing" textLength="67" x="1661" y="1459.5654">checkout</text><path d="M1601,1426.5703 L1611,1426.5703 C1626,1426.5703 1626,1454.7188 1641,1454.7188 L1651,1454.7188 " fill="none" style="stroke:#181818;stroke-width:1.0;"/><path d="M1432,1356.1992 L1442,1356.1992 C1457,1356.1992 1457,1426.5703 1472,1426.5703 L1482,1426.5703 " fill="none" style="stroke:#181818;stroke-width:1.0;"/><rect fill="#F1F1F1" height="36.2969" rx="12.5" ry="12.5" style="stroke:#181818;stroke-width:1.5;" width="134" x="1482" y="1492.8672"/><text fill="#000000" font-family="sans-serif" font-size="14" lengthAdjust="spacing" textLength="114" x="1492" y="1515.8623">additionalneeds</text><path d="M1432,1356.1992 L1442,1356.1992 C1457,1356.1992 1457,1511.0156 1472,1511.0156 L1482,1511.0156 " fill="none" style="stroke:#181818;stroke-width:1.0;"/><path d="M1303,1328.0508 L1313,1328.0508 C1328,1328.0508 1328,1356.1992 1343,1356.1992 L1353,1356.1992 " fill="none" style="stroke:#181818;stroke-width:1.0;"/><path d="M1188,1145.0859 L1198,1145.0859 C1213,1145.0859 1213,1328.0508 1228,1328.0508 L1238,1328.0508 " fill="none" style="stroke:#181818;stroke-width:1.0;"/><path d="M1012,1145.0859 L1022,1145.0859 C1037,1145.0859 1037,1145.0859 1052,1145.0859 L1062,1145.0859 " fill="none" style="stroke:#181818;stroke-width:1.0;"/><path d="M834,1060.6406 L844,1060.6406 C859,1060.6406 859,1145.0859 874,1145.0859 L884,1145.0859 " fill="none" style="stroke:#181818;stroke-width:1.0;"/><rect fill="#F1F1F1" height="36.2969" rx="12.5" ry="12.5" style="stroke:#181818;stroke-width:1.5;" width="131" x="884" y="1732.1289"/><text fill="#000000" font-family="sans-serif" font-size="14" lengthAdjust="spacing" textLength="111" x="894" y="1755.124">UpdateBooking</text><rect fill="#F1F1F1" height="36.2969" rx="12.5" ry="12.5" style="stroke:#181818;stroke-width:1.5;" width="115" x="1065" y="1732.1289"/><text fill="#000000" font-family="sans-serif" font-size="14" lengthAdjust="spacing" textLength="95" x="1075" y="1755.124">PUT /booking</text><rect fill="#F1F1F1" height="36.2969" rx="12.5" ry="12.5" style="stroke:#181818;stroke-width:1.5;" width="119" x="1230" y="1549.1641"/><text fill="#000000" font-family="sans-serif" font-size="14" lengthAdjust="spacing" textLength="99" x="1240" y="1572.1592">url parameter</text><rect fill="#F1F1F1" height="36.2969" rx="12.5" ry="12.5" style="stroke:#181818;stroke-width:1.5;" width="33" x="1399" y="1549.1641"/><text fill="#000000" font-family="sans-serif" font-size="14" lengthAdjust="spacing" textLength="13" x="1409" y="1572.1592">id</text><path d="M1349,1567.3125 L1359,1567.3125 C1374,1567.3125 1374,1567.3125 1389,1567.3125 L1399,1567.3125 " fill="none" style="stroke:#181818;stroke-width:1.0;"/><path d="M1180,1750.2773 L1190,1750.2773 C1205,1750.2773 1205,1567.3125 1220,1567.3125 L1230,1567.3125 " fill="none" style="stroke:#181818;stroke-width:1.0;"/><rect fill="#F1F1F1" height="36.2969" rx="12.5" ry="12.5" style="stroke:#181818;stroke-width:1.5;" width="65" x="1230" y="1760.2773"/><text fill="#000000" font-family="sans-serif" font-size="14" lengthAdjust="spacing" textLength="45" x="1240" y="1783.2725">return</text><rect fill="#F1F1F1" height="36.2969" rx="12.5" ry="12.5" style="stroke:#181818;stroke-width:1.5;" width="90" x="1345" y="1605.4609"/><text fill="#000000" font-family="sans-serif" font-size="14" lengthAdjust="spacing" textLength="70" x="1355" y="1628.4561">firstname</text><path d="M1295,1778.4258 L1305,1778.4258 C1320,1778.4258 1320,1623.6094 1335,1623.6094 L1345,1623.6094 " fill="none" style="stroke:#181818;stroke-width:1.0;"/><rect fill="#F1F1F1" height="36.2969" rx="12.5" ry="12.5" style="stroke:#181818;stroke-width:1.5;" width="86" x="1345" y="1661.7578"/><text fill="#000000" font-family="sans-serif" font-size="14" lengthAdjust="spacing" textLength="66" x="1355" y="1684.7529">lastname</text><path d="M1295,1778.4258 L1305,1778.4258 C1320,1778.4258 1320,1679.9063 1335,1679.9063 L1345,1679.9063 " fill="none" style="stroke:#181818;stroke-width:1.0;"/><rect fill="#F1F1F1" height="36.2969" rx="12.5" ry="12.5" style="stroke:#181818;stroke-width:1.5;" width="92" x="1345" y="1718.0547"/><text fill="#000000" font-family="sans-serif" font-size="14" lengthAdjust="spacing" textLength="72" x="1355" y="1741.0498">totalprice</text><path d="M1295,1778.4258 L1305,1778.4258 C1320,1778.4258 1320,1736.2031 1335,1736.2031 L1345,1736.2031 " fill="none" style="stroke:#181818;stroke-width:1.0;"/><rect fill="#F1F1F1" height="36.2969" rx="12.5" ry="12.5" style="stroke:#181818;stroke-width:1.5;" width="106" x="1345" y="1774.3516"/><text fill="#000000" font-family="sans-serif" font-size="14" lengthAdjust="spacing" textLength="86" x="1355" y="1797.3467">depositpaid</text><path d="M1295,1778.4258 L1305,1778.4258 C1320,1778.4258 1320,1792.5 1335,1792.5 L1345,1792.5 " fill="none" style="stroke:#181818;stroke-width:1.0;"/><rect fill="#F1F1F1" height="36.2969" rx="12.5" ry="12.5" style="stroke:#181818;stroke-width:1.5;" width="119" x="1345" y="1830.6484"/><text fill="#000000" font-family="sans-serif" font-size="14" lengthAdjust="spacing" textLength="99" x="1355" y="1853.6436">bookingdates</text><rect fill="#F1F1F1" height="36.2969" rx="12.5" ry="12.5" style="stroke:#181818;stroke-width:1.5;" width="76" x="1514" y="1802.5"/><text fill="#000000" font-family="sans-serif" font-size="14" lengthAdjust="spacing" textLength="56" x="1524" y="1825.4951">checkin</text><path d="M1464,1848.7969 L1474,1848.7969 C1489,1848.7969 1489,1820.6484 1504,1820.6484 L1514,1820.6484 " fill="none" style="stroke:#181818;stroke-width:1.0;"/><rect fill="#F1F1F1" height="36.2969" rx="12.5" ry="12.5" style="stroke:#181818;stroke-width:1.5;" width="87" x="1514" y="1858.7969"/><text fill="#000000" font-family="sans-serif" font-size="14" lengthAdjust="spacing" textLength="67" x="1524" y="1881.792">checkout</text><path d="M1464,1848.7969 L1474,1848.7969 C1489,1848.7969 1489,1876.9453 1504,1876.9453 L1514,1876.9453 " fill="none" style="stroke:#181818;stroke-width:1.0;"/><path d="M1295,1778.4258 L1305,1778.4258 C1320,1778.4258 1320,1848.7969 1335,1848.7969 L1345,1848.7969 " fill="none" style="stroke:#181818;stroke-width:1.0;"/><rect fill="#F1F1F1" height="36.2969" rx="12.5" ry="12.5" style="stroke:#181818;stroke-width:1.5;" width="134" x="1345" y="1915.0938"/><text fill="#000000" font-family="sans-serif" font-size="14" lengthAdjust="spacing" textLength="114" x="1355" y="1938.0889">additionalneeds</text><path d="M1295,1778.4258 L1305,1778.4258 C1320,1778.4258 1320,1933.2422 1335,1933.2422 L1345,1933.2422 " fill="none" style="stroke:#181818;stroke-width:1.0;"/><path d="M1180,1750.2773 L1190,1750.2773 C1205,1750.2773 1205,1778.4258 1220,1778.4258 L1230,1778.4258 " fill="none" style="stroke:#181818;stroke-width:1.0;"/><path d="M1015,1750.2773 L1025,1750.2773 C1040,1750.2773 1040,1750.2773 1055,1750.2773 L1065,1750.2773 " fill="none" style="stroke:#181818;stroke-width:1.0;"/><path d="M834,1060.6406 L844,1060.6406 C859,1060.6406 859,1750.2773 874,1750.2773 L884,1750.2773 " fill="none" style="stroke:#181818;stroke-width:1.0;"/><rect fill="#F1F1F1" height="36.2969" rx="12.5" ry="12.5" style="stroke:#181818;stroke-width:1.5;" width="128" x="884" y="1999.5391"/><text fill="#000000" font-family="sans-serif" font-size="14" lengthAdjust="spacing" textLength="108" x="894" y="2022.5342">DeleteBooking</text><rect fill="#F1F1F1" height="36.2969" rx="12.5" ry="12.5" style="stroke:#181818;stroke-width:1.5;" width="143" x="1062" y="1999.5391"/><text fill="#000000" font-family="sans-serif" font-size="14" lengthAdjust="spacing" textLength="123" x="1072" y="2022.5342">DELETE /booking</text><rect fill="#F1F1F1" height="36.2969" rx="12.5" ry="12.5" style="stroke:#181818;stroke-width:1.5;" width="119" x="1255" y="1971.3906"/><text fill="#000000" font-family="sans-serif" font-size="14" lengthAdjust="spacing" textLength="99" x="1265" y="1994.3857">url parameter</text><rect fill="#F1F1F1" height="36.2969" rx="12.5" ry="12.5" style="stroke:#181818;stroke-width:1.5;" width="33" x="1424" y="1971.3906"/><text fill="#000000" font-family="sans-serif" font-size="14" lengthAdjust="spacing" textLength="13" x="1434" y="1994.3857">id</text><path d="M1374,1989.5391 L1384,1989.5391 C1399,1989.5391 1399,1989.5391 1414,1989.5391 L1424,1989.5391 " fill="none" style="stroke:#181818;stroke-width:1.0;"/><path d="M1205,2017.6875 L1215,2017.6875 C1230,2017.6875 1230,1989.5391 1245,1989.5391 L1255,1989.5391 " fill="none" style="stroke:#181818;stroke-width:1.0;"/><rect fill="#F1F1F1" height="36.2969" rx="12.5" ry="12.5" style="stroke:#181818;stroke-width:1.5;" width="65" x="1255" y="2027.6875"/><text fill="#000000" font-family="sans-serif" font-size="14" lengthAdjust="spacing" textLength="45" x="1265" y="2050.6826">return</text><rect fill="#F1F1F1" height="36.2969" rx="12.5" ry="12.5" style="stroke:#181818;stroke-width:1.5;" width="38" x="1370" y="2027.6875"/><text fill="#000000" font-family="sans-serif" font-size="14" lengthAdjust="spacing" textLength="18" x="1380" y="2050.6826">ok</text><path d="M1320,2045.8359 L1330,2045.8359 C1345,2045.8359 1345,2045.8359 1360,2045.8359 L1370,2045.8359 " fill="none" style="stroke:#181818;stroke-width:1.0;"/><path d="M1205,2017.6875 L1215,2017.6875 C1230,2017.6875 1230,2045.8359 1245,2045.8359 L1255,2045.8359 " fill="none" style="stroke:#181818;stroke-width:1.0;"/><path d="M1012,2017.6875 L1022,2017.6875 C1037,2017.6875 1037,2017.6875 1052,2017.6875 L1062,2017.6875 " fill="none" style="stroke:#181818;stroke-width:1.0;"/><path d="M834,1060.6406 L844,1060.6406 C859,1060.6406 859,2017.6875 874,2017.6875 L884,2017.6875 " fill="none" style="stroke:#181818;stroke-width:1.0;"/><path d="M705,1060.6406 L715,1060.6406 C730,1060.6406 730,1060.6406 745,1060.6406 L755,1060.6406 " fill="none" style="stroke:#181818;stroke-width:1.0;"/><rect fill="#F1F1F1" height="52.5938" rx="12.5" ry="12.5" style="stroke:#181818;stroke-width:1.5;" width="114" x="408" y="1034.3438"/><text fill="#000000" font-family="sans-serif" font-size="14" lengthAdjust="spacing" textLength="34" x="418" y="1057.3389">Auth</text><text fill="#000000" font-family="sans-serif" font-size="14" lengthAdjust="spacing" textLength="94" x="418" y="1073.6357">CreateToken</text><rect fill="#F1F1F1" height="36.2969" rx="12.5" ry="12.5" style="stroke:#181818;stroke-width:1.5;" width="99" x="259" y="1042.4922"/><text fill="#000000" font-family="sans-serif" font-size="14" lengthAdjust="spacing" textLength="79" x="269" y="1065.4873">POST /auth</text><rect fill="#F1F1F1" height="36.2969" rx="12.5" ry="12.5" style="stroke:#181818;stroke-width:1.5;" width="59" x="150" y="1014.3438"/><text fill="#000000" font-family="sans-serif" font-size="14" lengthAdjust="spacing" textLength="39" x="160" y="1037.3389">fields</text><rect fill="#F1F1F1" height="36.2969" rx="12.5" ry="12.5" style="stroke:#181818;stroke-width:1.5;" width="90" x="10" y="986.1953"/><text fill="#000000" font-family="sans-serif" font-size="14" lengthAdjust="spacing" textLength="70" x="20" y="1009.1904">username</text><path d="M150,1032.4922 L140,1032.4922 C125,1032.4922 125,1004.3438 110,1004.3438 L100,1004.3438 " fill="none" style="stroke:#181818;stroke-width:1.0;"/><rect fill="#F1F1F1" height="36.2969" rx="12.5" ry="12.5" style="stroke:#181818;stroke-width:1.5;" width="87" x="13" y="1042.4922"/><text fill="#000000" font-family="sans-serif" font-size="14" lengthAdjust="spacing" textLength="67" x="23" y="1065.4873">password</text><path d="M150,1032.4922 L140,1032.4922 C125,1032.4922 125,1060.6406 110,1060.6406 L100,1060.6406 " fill="none" style="stroke:#181818;stroke-width:1.0;"/><path d="M259,1060.6406 L249,1060.6406 C234,1060.6406 234,1032.4922 219,1032.4922 L209,1032.4922 " fill="none" style="stroke:#181818;stroke-width:1.0;"/><rect fill="#F1F1F1" height="36.2969" rx="12.5" ry="12.5" style="stroke:#181818;stroke-width:1.5;" width="65" x="144" y="1098.7891"/><text fill="#000000" font-family="sans-serif" font-size="14" lengthAdjust="spacing" textLength="45" x="154" y="1121.7842">return</text><rect fill="#F1F1F1" height="36.2969" rx="12.5" ry="12.5" style="stroke:#181818;stroke-width:1.5;" width="63" x="31" y="1098.7891"/><text fill="#000000" font-family="sans-serif" font-size="14" lengthAdjust="spacing" textLength="43" x="41" y="1121.7842">token</text><path d="M144,1116.9375 L134,1116.9375 C119,1116.9375 119,1116.9375 104,1116.9375 L94,1116.9375 " fill="none" style="stroke:#181818;stroke-width:1.0;"/><path d="M259,1060.6406 L249,1060.6406 C234,1060.6406 234,1116.9375 219,1116.9375 L209,1116.9375 " fill="none" style="stroke:#181818;stroke-width:1.0;"/><path d="M408,1060.6406 L398,1060.6406 C383,1060.6406 383,1060.6406 368,1060.6406 L358,1060.6406 " fill="none" style="stroke:#181818;stroke-width:1.0;"/><path d="M572,1060.6406 L562,1060.6406 C547,1060.6406 547,1060.6406 532,1060.6406 L522,1060.6406 " fill="none" style="stroke:#181818;stroke-width:1.0;"/><!--SRC=[pPHDRnen48Rl_XLpX9L8GnHLLKxvO4CJWOe2crClPZs0XTVUscEY_FiEi92mkwbIzTBRpdWyx_juLdCTI7egj5M5B8KWJGRXPl80Q5NfjAKWH09F66WHZUdDdLkZ5yBWWY1eXNoQm4sarKzxvr4IphZ0SZA1oO_f3Bv8FjiMSMAXqQYm-quW1lHM5bY5fGpXnNbLbNgaw6rrHhkMmklbwfteBLlHThcx04EaAdwe562OilgyAZg8U5Oaz9M9hIKVwCr60aQUnlaAS-vm4hf8LSFtDXEenBIgU_hGKFJcpTIX3Tzlla7DQCqdFn59KtgT7n8AInSqbRBgTdIdU4RXStHIAKtQMMaieWfxglsKJy3sWpuby_Whya_3gkhrquzTfsZ1QEMeWzH9cYX_7jzfujYqxhy1q4BGXj3Eq81eK7mmaQnKZObaV_MhrL_YFnhKZd201ck4WtIKpj9_WNHh8QvvonrttyH8Izbu11jU46m1-cSNvnUNP_qvakntChksxiL2xefIyv8aNM1NT8QJ4GGNVOwWT22lvt7hloiUvKR2KxJRkYlOHftPk0lJz924r6wqTxP0I-BnURmlWk-EfgMZNV7Nozwj9fYYPq_mF1O3NCXeYA_cJZ7t5MIp-zutCP9s6UMIXNXJtZaMyAzyDlqD]--></g></svg>